<?xml version="1.0" encoding="utf-8"?>
<!-- Generator: Adobe Illustrator 19.0.0, SVG Export Plug-In . SVG Version: 6.00 Build 0)  -->
<svg version="1.1" id="Layer_1" xmlns="http://www.w3.org/2000/svg" xmlns:xlink="http://www.w3.org/1999/xlink" x="0px" y="0px"
	 viewBox="0 0 600 147.3" style="enable-background:new 0 0 600 147.3;" xml:space="preserve">
<style type="text/css">
	.st0{fill:#37AA31;}
	.st1{fill:#FFFFFF;}
</style>
<g id="XMLID_206_">
	<path id="XMLID_210_" class="st0" d="M240.4,89.4V20.2c0,0,0-7,6.3-7s42.2,0,45.4,0s22.3,0.6,8.8,28.6
		c-3.2,6.6-47.2,90.7-47.2,90.7s-1,1.9-2.6,1.9h-18.9c0,0-0.6-0.9,0.1-2.3c-2.1,4.2,29.6-56.2,44.6-85.8c4.1-8,1.1-2.3,2.5-5
		c4.4-8.2-4.6-8.2-4.6-8.2h-14.4l0.2,24.1l-20.2,38.9L240.4,89.4z"/>
	<path id="XMLID_209_" class="st0" d="M315.2,33.1l27.9-0.1c0.9,0,1.6-0.3,2.2-0.9c0.6-0.6,0.9-1.4,0.9-2.2V17.5
		c0-0.9-0.3-1.6-0.9-2.2c-0.6-0.6-1.4-0.9-2.2-0.9h-18.3C322.2,19.3,319,25.7,315.2,33.1z"/>
	<path id="XMLID_208_" class="st0" d="M298.8,64.4c3.4-6.5,6.7-12.8,9.7-18.7h32.8c0.9,0,1.6,0.3,2.2,0.9s0.9,1.4,0.9,2.2v12.4
		c0,0.9-0.3,1.6-0.9,2.2s-1.4,0.9-2.2,0.9L298.8,64.4z"/>
	<path id="XMLID_207_" class="st0" d="M346.3,78.4c-0.6-0.6-1.4-0.9-2.2-0.9h-18.5h-18.4h-14.7c-1.9,3.7-5,9.7-6.9,13.5v2
		c0,0.9,0.3,1.6,0.9,2.2s1.4,0.9,2.2,0.9h55.4c0.9,0,1.6-0.3,2.2-0.9s0.9-1.4,0.9-2.2V80.6C347.2,79.7,346.9,79,346.3,78.4z"/>
</g>
<g id="XMLID_128_">
	<path id="XMLID_204_" class="st1" d="M48.2,13.1c5,0,9.6,0.7,13.7,2.2c4.2,1.4,7.8,3.3,10.8,5.6s5.4,4.8,7.1,7.5
		c1.7,2.7,2.6,5.3,2.7,7.8c0,0.7-0.3,1.3-0.8,1.8s-1.1,0.8-1.7,0.8H64.7c-1.1,0-2-0.2-2.6-0.5c-0.7-0.3-1.3-0.8-2-1.4
		c-0.2-0.2-0.6-0.6-1.1-1.2c-0.5-0.5-1.2-1.1-2.2-1.7c-0.9-0.6-2.1-1.1-3.5-1.5s-3.1-0.6-5.1-0.6c-1.5,0-2.9,0.1-4.3,0.3
		c-1.4,0.2-2.6,0.5-3.6,0.9c-1.1,0.4-1.9,1-2.6,1.8c-0.7,0.8-1,1.8-1,2.9c0,1.2,0.4,2.1,1.1,2.9c0.7,0.8,2,1.5,3.7,2.2
		c1.8,0.7,4.1,1.3,7,1.9S55,46.2,59.3,47c4.3,0.9,8,1.9,11.2,3.3c3.2,1.3,5.9,3,8,5s3.7,4.3,4.8,7c1.1,2.7,1.6,5.9,1.6,9.5
		c0,4-0.9,7.5-2.7,10.6s-4.3,5.8-7.5,8s-7.1,3.9-11.5,5.1s-9.2,1.8-14.4,1.8c-5.3,0-10.1-0.7-14.5-2.1s-8.1-3.3-11.3-5.6
		c-3.2-2.3-5.6-4.9-7.4-7.8c-1.8-2.9-2.7-5.8-2.8-8.8c0-0.7,0.3-1.3,0.8-1.8s1.1-0.8,1.7-0.8h15.3c1.1,0,1.9,0.1,2.6,0.4
		c0.6,0.3,1.2,0.7,1.9,1.2c0.3,0.3,0.8,0.8,1.4,1.5c0.6,0.7,1.5,1.4,2.5,2.2c1.1,0.7,2.4,1.4,4,1.9s3.6,0.8,5.9,0.8
		c4.1,0,7.6-0.4,10.3-1.3c2.8-0.9,4.1-2.5,4.1-4.9c0-1.2-0.5-2.1-1.5-2.9s-2.5-1.5-4.6-2.2c-2-0.7-4.6-1.3-7.8-1.9
		s-6.9-1.4-11.2-2.3c-8-1.7-13.9-4.6-17.6-8.6c-3.7-4-5.6-9.4-5.6-16.1c0-3.3,0.8-6.5,2.3-9.6c1.5-3,3.7-5.7,6.6-8.1
		c2.9-2.3,6.4-4.2,10.5-5.6C38.5,13.8,43.1,13.1,48.2,13.1z"/>
	<path id="XMLID_202_" class="st1" d="M151.8,77.4c0.9,0,1.6,0.3,2.2,0.9s0.9,1.4,0.9,2.2v12.4c0,0.9-0.3,1.6-0.9,2.2
		s-1.4,0.9-2.2,0.9H96.4c-0.9,0-1.6-0.3-2.2-0.9c-0.6-0.6-0.9-1.4-0.9-2.2V17.4c0-0.9,0.3-1.6,0.9-2.2c0.6-0.6,1.4-0.9,2.2-0.9h54.5
		c0.9,0,1.6,0.3,2.2,0.9c0.6,0.6,0.9,1.4,0.9,2.2v12.4c0,0.9-0.3,1.6-0.9,2.2c-0.6,0.6-1.4,0.9-2.2,0.9h-36v12.6h33.4
		c0.9,0,1.6,0.3,2.2,0.9s0.9,1.4,0.9,2.2V61c0,0.9-0.3,1.6-0.9,2.2s-1.4,0.9-2.2,0.9h-33.4v13.1h36.9V77.4z"/>
	<path id="XMLID_200_" class="st1" d="M216.6,96.1c-1.3,0-2.4-0.4-3.2-1.1s-1.3-1.2-1.6-1.6l-26.8-40v39.5c0,0.9-0.3,1.6-0.9,2.2
		s-1.4,0.9-2.2,0.9h-15.3c-0.9,0-1.6-0.3-2.2-0.9s-0.9-1.4-0.9-2.2V17.4c0-0.9,0.3-1.6,0.9-2.2c0.6-0.6,1.4-0.9,2.2-0.9h12.2
		c1.3,0,2.4,0.4,3.2,1.1c0.8,0.7,1.3,1.2,1.6,1.6l26.8,40V17.5c0-0.9,0.3-1.6,0.9-2.2c0.6-0.6,1.4-0.9,2.2-0.9h15.3
		c0.9,0,1.6,0.3,2.2,0.9c0.6,0.6,0.9,1.4,0.9,2.2V93c0,0.9-0.3,1.6-0.9,2.2s-1.4,0.9-2.2,0.9H216.6z"/>
	<path id="XMLID_198_" class="st1" d="M408.8,96.1c-1.3,0-2.4-0.4-3.2-1.1c-0.8-0.7-1.3-1.2-1.6-1.6l-26.8-40v39.5
		c0,0.9-0.3,1.6-0.9,2.2s-1.4,0.9-2.2,0.9h-15.3c-0.9,0-1.6-0.3-2.2-0.9s-0.9-1.4-0.9-2.2V17.4c0-0.9,0.3-1.6,0.9-2.2
		c0.6-0.6,1.4-0.9,2.2-0.9H371c1.3,0,2.4,0.4,3.2,1.1c0.8,0.7,1.3,1.2,1.6,1.6l26.8,40V17.5c0-0.9,0.3-1.6,0.9-2.2
		c0.6-0.6,1.4-0.9,2.2-0.9H421c0.9,0,1.6,0.3,2.2,0.9c0.6,0.6,0.9,1.4,0.9,2.2V93c0,0.9-0.3,1.6-0.9,2.2s-1.4,0.9-2.2,0.9H408.8z"/>
	<path id="XMLID_196_" class="st1" d="M469.1,31.8c-2.7,0-4.9,0.4-6.7,1.1c-1.8,0.7-3.3,1.7-4.4,3c-1.1,1.2-2,2.7-2.5,4.3
		c-0.5,1.6-0.9,3.4-1.2,5.1c-0.2,1-0.3,2.4-0.3,4.2c0,1.8-0.1,3.6-0.1,5.6c0,1.9,0,3.8,0.1,5.6c0.1,1.8,0.2,3.3,0.2,4.3
		c0.2,1.8,0.5,3.5,1.1,5.1s1.4,3.1,2.6,4.3c1.1,1.2,2.6,2.2,4.4,3c1.8,0.7,4,1.1,6.6,1.1c2,0,3.9-0.2,5.7-0.7
		c1.8-0.5,3.3-1.2,4.7-2.2c1.3-1,2.4-2.3,3.2-4c0.8-1.6,1.2-3.6,1.2-6h-9.8c-0.9,0-1.6-0.3-2.2-0.9s-0.9-1.4-0.9-2.2V50.1
		c0-0.9,0.3-1.6,0.9-2.2s1.4-0.9,2.2-0.9h28.3c0.9,0,1.6,0.3,2.2,0.9s0.9,1.4,0.9,2.2v15c0,5-0.9,9.5-2.8,13.4
		c-1.9,4-4.4,7.3-7.7,10.1c-3.3,2.8-7.1,4.9-11.5,6.4s-9.2,2.2-14.3,2.2c-5.6,0-10.6-0.8-15-2.5s-8.2-4-11.3-6.8
		c-3.1-2.9-5.5-6.3-7.2-10.1c-1.7-3.9-2.6-7.9-2.9-12.2c-0.2-3.2-0.2-6.6-0.2-10.3c0-3.7,0.1-7.2,0.2-10.5c0.2-4.3,1.1-8.4,2.8-12.2
		c1.7-3.9,4.1-7.2,7.2-10.1c3.1-2.9,6.8-5.2,11.3-6.8c4.4-1.7,9.5-2.5,15.1-2.5c5.5,0,10.4,0.8,14.7,2.4c4.4,1.6,8.1,3.6,11.1,6.1
		s5.4,5.1,7.1,8.1c1.7,2.9,2.6,5.7,2.8,8.4c0.1,0.7-0.2,1.3-0.7,1.8s-1.2,0.8-1.9,0.8h-15.5c-1.2,0-2.1-0.4-2.7-1.1
		c-0.7-0.7-1.3-1.4-1.9-2.1c-1.1-1.4-2.6-2.7-4.4-3.9C475.7,32.4,472.9,31.8,469.1,31.8z"/>
	<path id="XMLID_193_" class="st1" d="M514.1,44.8c0.2-4.4,1.2-8.5,2.9-12.3c1.7-3.9,4.1-7.2,7.1-10.1c3.1-2.8,6.8-5.1,11.2-6.8
		c4.4-1.7,9.5-2.5,15.3-2.5c5.7,0,10.8,0.8,15.2,2.5c4.4,1.7,8.2,3.9,11.3,6.8c3.1,2.8,5.5,6.2,7.1,10.1c1.7,3.9,2.6,8,2.9,12.3
		c0.2,3.4,0.2,6.9,0.2,10.5c0,3.7-0.1,7.1-0.2,10.3c-0.2,4.4-1.2,8.5-2.9,12.3c-1.7,3.9-4.1,7.2-7.1,10.1c-3.1,2.9-6.8,5.1-11.3,6.8
		c-4.4,1.6-9.5,2.5-15.2,2.5c-5.8,0-10.9-0.8-15.3-2.5c-4.4-1.6-8.1-3.9-11.2-6.8s-5.5-6.3-7.1-10.1c-1.7-3.9-2.6-8-2.9-12.3
		c-0.2-3.2-0.2-6.6-0.2-10.3C513.8,51.7,513.9,48.2,514.1,44.8z M565.4,65c0.1-1.4,0.2-3,0.2-4.7c0.1-1.7,0.1-3.5,0.1-5.3
		s0-3.5-0.1-5.2s-0.2-3.2-0.2-4.5c-0.2-1.9-0.6-3.7-1.2-5.4c-0.7-1.6-1.6-3.1-2.8-4.3c-1.2-1.2-2.7-2.2-4.5-2.9
		c-1.8-0.7-3.9-1.1-6.3-1.1s-4.5,0.4-6.3,1.1c-1.8,0.7-3.3,1.7-4.5,2.9c-1.2,1.2-2.1,2.6-2.8,4.3c-0.7,1.6-1.1,3.4-1.2,5.4
		c-0.2,1.3-0.3,2.8-0.3,4.5s-0.1,3.4-0.1,5.2c0,1.8,0,3.5,0.1,5.3c0,1.7,0.1,3.3,0.3,4.7c0.3,3.9,1.7,7.1,4,9.7
		c2.4,2.6,6,3.9,10.8,3.9s8.4-1.3,10.8-3.9C563.6,72.2,565,68.9,565.4,65z"/>
	<path id="XMLID_190_" class="st1" d="M285.5,134.4v-11.7h3.9c0.9,0,1.7,0.2,2.4,0.5c0.7,0.3,1.3,0.7,1.7,1.2c0.5,0.5,0.8,1.1,1,1.8
		c0.2,0.7,0.4,1.5,0.4,2.2c0,0.9-0.1,1.7-0.4,2.4c-0.3,0.7-0.6,1.3-1.1,1.8s-1.1,0.9-1.7,1.2c-0.7,0.3-1.4,0.4-2.3,0.4h-3.9V134.4z
		 M293.9,128.5c0-0.7-0.1-1.3-0.3-1.9c-0.2-0.6-0.5-1.1-0.9-1.5s-0.8-0.8-1.4-1c-0.5-0.2-1.2-0.4-1.9-0.4h-2.8v9.6h2.8
		c0.7,0,1.4-0.1,1.9-0.4c0.5-0.2,1-0.6,1.4-1s0.7-0.9,0.8-1.5C293.8,129.9,293.9,129.2,293.9,128.5z"/>
	<path id="XMLID_187_" class="st1" d="M301.9,134.4c-0.8,0-1.5-0.2-2.2-0.5s-1.2-0.8-1.7-1.3c-0.5-0.6-0.8-1.2-1.1-1.9
		c-0.3-0.7-0.4-1.4-0.4-2.2c0-0.8,0.1-1.5,0.4-2.2s0.7-1.3,1.2-1.9c0.5-0.5,1.1-1,1.7-1.3c0.7-0.3,1.4-0.5,2.2-0.5
		c0.8,0,1.5,0.2,2.2,0.5s1.2,0.8,1.7,1.3c0.5,0.6,0.8,1.2,1.1,1.9c0.3,0.7,0.4,1.4,0.4,2.2c0,0.8-0.1,1.5-0.4,2.2s-0.7,1.3-1.1,1.9
		c-0.5,0.5-1.1,1-1.7,1.3C303.4,134.3,302.6,134.4,301.9,134.4z M297.6,128.5c0,0.6,0.1,1.2,0.3,1.8c0.2,0.6,0.5,1.1,0.9,1.6
		s0.8,0.8,1.4,1.1c0.5,0.3,1.1,0.4,1.7,0.4c0.7,0,1.2-0.1,1.8-0.4c0.5-0.3,1-0.7,1.4-1.1c0.4-0.5,0.7-1,0.9-1.6
		c0.2-0.6,0.3-1.2,0.3-1.8c0-0.6-0.1-1.2-0.3-1.8c-0.2-0.6-0.5-1.1-0.9-1.5s-0.8-0.8-1.4-1.1c-0.5-0.3-1.1-0.4-1.7-0.4
		c-0.7,0-1.2,0.1-1.8,0.4c-0.5,0.3-1,0.6-1.4,1.1s-0.7,1-0.9,1.6S297.6,127.9,297.6,128.5z"/>
	<path id="XMLID_185_" class="st1" d="M310.6,124.9v9.5h-1.1v-11.7h0.9l7.7,9.7v-9.6h1.1v11.6h-1L310.6,124.9z"/>
	<path id="XMLID_182_" class="st1" d="M322.1,134.4v-11.7h3.9c0.9,0,1.7,0.2,2.4,0.5c0.7,0.3,1.3,0.7,1.7,1.2c0.5,0.5,0.8,1.1,1,1.8
		c0.2,0.7,0.4,1.5,0.4,2.2c0,0.9-0.1,1.7-0.4,2.4c-0.3,0.7-0.6,1.3-1.1,1.8s-1.1,0.9-1.7,1.2s-1.4,0.4-2.3,0.4h-3.9V134.4z
		 M330.4,128.5c0-0.7-0.1-1.3-0.3-1.9c-0.2-0.6-0.5-1.1-0.9-1.5s-0.8-0.8-1.4-1c-0.5-0.2-1.2-0.4-1.9-0.4h-2.8v9.6h2.8
		c0.7,0,1.4-0.1,1.9-0.4c0.6-0.2,1-0.6,1.4-1s0.7-0.9,0.8-1.5C330.4,129.9,330.4,129.2,330.4,128.5z"/>
	<path id="XMLID_180_" class="st1" d="M341.6,133.3v1h-7.8v-11.6h7.7v1H335v4.2h5.7v1H335v4.4H341.6z"/>
	<path id="XMLID_178_" class="st1" d="M355.8,132v2.4h-8.2v-11.7h8v2.4h-5.3v2.3h4.6v2.2h-4.6v2.5h5.5V132z"/>
	<path id="XMLID_176_" class="st1" d="M360.1,127.7v6.6h-2.7v-11.6h2.1l5.4,6.8v-6.8h2.7v11.6h-2.2L360.1,127.7z"/>
	<path id="XMLID_174_" class="st1" d="M371.5,122.7l2.7,8.2l2.7-8.2h2.8l-4.4,11.6H373l-4.4-11.6H371.5z"/>
	<path id="XMLID_171_" class="st1" d="M380.8,134.4v-11.7h2.7v11.6h-2.7V134.4z M382.9,122l-1.7-0.5l0.8-2.1h2.4L382.9,122z"/>
	<path id="XMLID_168_" class="st1" d="M388.9,122.7h2.4l4.2,11.6h-2.7l-0.9-2.6h-3.6l-0.9,2.6h-2.7L388.9,122.7z M391.4,129.9
		l-1.4-4.1l-1.4,4.1H391.4z"/>
	<path id="XMLID_166_" class="st1" d="M403.5,126.1c0,0-0.1-0.1-0.3-0.2c-0.2-0.1-0.4-0.2-0.7-0.4c-0.3-0.1-0.6-0.2-1-0.3
		c-0.3-0.1-0.7-0.1-1-0.1c-1,0-1.4,0.3-1.4,1c0,0.2,0.1,0.4,0.2,0.5s0.3,0.2,0.5,0.4c0.2,0.1,0.5,0.2,0.8,0.3
		c0.3,0.1,0.7,0.2,1.1,0.3c0.6,0.2,1.1,0.3,1.5,0.5c0.4,0.2,0.8,0.4,1.1,0.7c0.3,0.3,0.6,0.6,0.7,1c0.2,0.4,0.3,0.8,0.3,1.4
		c0,0.7-0.1,1.2-0.4,1.7c-0.2,0.5-0.6,0.8-1,1.1c-0.4,0.3-0.9,0.5-1.4,0.6s-1.1,0.2-1.6,0.2c-0.4,0-0.9,0-1.3-0.1s-0.9-0.2-1.3-0.3
		c-0.4-0.1-0.8-0.3-1.2-0.4c-0.4-0.2-0.8-0.4-1.1-0.6l1.2-2.3c0,0.1,0.2,0.2,0.4,0.3c0.2,0.2,0.5,0.3,0.9,0.5s0.7,0.3,1.2,0.4
		c0.4,0.1,0.9,0.2,1.3,0.2c0.9,0,1.4-0.3,1.4-0.9c0-0.2-0.1-0.4-0.2-0.5s-0.3-0.3-0.6-0.4c-0.3-0.1-0.5-0.2-0.9-0.3
		c-0.3-0.1-0.7-0.2-1.1-0.3c-0.5-0.2-1-0.3-1.4-0.5s-0.7-0.4-1-0.7c-0.3-0.2-0.4-0.5-0.6-0.9c-0.1-0.3-0.2-0.7-0.2-1.1
		c0-0.6,0.1-1.1,0.3-1.6c0.2-0.5,0.5-0.9,0.9-1.2c0.4-0.3,0.8-0.6,1.4-0.7c0.5-0.2,1.1-0.2,1.6-0.2c0.4,0,0.8,0,1.2,0.1
		c0.4,0.1,0.8,0.2,1.1,0.3c0.4,0.1,0.7,0.3,1,0.4c0.3,0.2,0.6,0.3,0.9,0.5L403.5,126.1z"/>
	<path id="XMLID_164_" class="st1" d="M411.6,122.7l2.5,5.3l2.5-5.3h2.9l-4.1,7.7v4h-2.7v-4l-4.1-7.6h3V122.7z"/>
	<path id="XMLID_162_" class="st1" d="M423.2,128.5c0-0.7,0.1-1.4,0.4-2.1s0.6-1.3,1.1-1.9c0.5-0.5,1.1-1,1.8-1.3
		c0.7-0.3,1.5-0.5,2.5-0.5c1.1,0,2,0.2,2.8,0.7s1.4,1.1,1.8,1.8l-2.1,1.4c-0.1-0.3-0.3-0.6-0.5-0.8c-0.2-0.2-0.4-0.4-0.7-0.5
		c-0.2-0.1-0.5-0.2-0.7-0.3c-0.3,0-0.5-0.1-0.7-0.1c-0.5,0-1,0.1-1.3,0.3c-0.4,0.2-0.7,0.5-0.9,0.8c-0.3,0.3-0.4,0.7-0.6,1.1
		c-0.1,0.4-0.2,0.8-0.2,1.3c0,0.5,0.1,0.9,0.2,1.3s0.3,0.8,0.6,1.1c0.3,0.3,0.6,0.6,1,0.8c0.4,0.2,0.8,0.3,1.3,0.3
		c0.2,0,0.5,0,0.7-0.1c0.3-0.1,0.5-0.2,0.7-0.3c0.2-0.1,0.5-0.3,0.6-0.5c0.2-0.2,0.4-0.5,0.5-0.7l2.2,1.3c-0.2,0.4-0.4,0.8-0.8,1.1
		c-0.3,0.3-0.7,0.6-1.2,0.8c-0.4,0.2-0.9,0.4-1.4,0.5s-1,0.2-1.5,0.2c-0.8,0-1.6-0.2-2.3-0.5c-0.7-0.3-1.3-0.8-1.8-1.4
		s-0.9-1.2-1.2-1.9C423.4,129.9,423.2,129.2,423.2,128.5z"/>
	<path id="XMLID_159_" class="st1" d="M440.1,134.4c-0.9,0-1.6-0.2-2.4-0.5s-1.3-0.8-1.8-1.3c-0.5-0.6-0.9-1.2-1.2-1.9
		c-0.3-0.7-0.4-1.4-0.4-2.2c0-0.8,0.1-1.5,0.4-2.2s0.7-1.3,1.2-1.9c0.5-0.5,1.1-1,1.8-1.3c0.7-0.3,1.5-0.5,2.3-0.5
		c0.9,0,1.6,0.2,2.4,0.5c0.7,0.3,1.3,0.8,1.8,1.3c0.5,0.6,0.9,1.2,1.2,1.9c0.3,0.7,0.4,1.4,0.4,2.2c0,0.8-0.1,1.5-0.4,2.2
		s-0.7,1.3-1.2,1.9c-0.5,0.5-1.1,1-1.8,1.3C441.7,134.3,440.9,134.4,440.1,134.4z M437.1,128.6c0,0.4,0.1,0.9,0.2,1.3
		s0.3,0.8,0.6,1.1c0.3,0.3,0.6,0.6,1,0.8c0.4,0.2,0.8,0.3,1.3,0.3s1-0.1,1.3-0.3c0.4-0.2,0.7-0.5,0.9-0.8c0.3-0.3,0.4-0.7,0.6-1.1
		c0.1-0.4,0.2-0.8,0.2-1.3c0-0.4-0.1-0.9-0.2-1.3s-0.3-0.8-0.6-1.1c-0.3-0.3-0.6-0.6-1-0.8c-0.4-0.2-0.8-0.3-1.3-0.3s-1,0.1-1.3,0.3
		c-0.4,0.2-0.7,0.5-0.9,0.8s-0.4,0.7-0.6,1.1S437.1,128.1,437.1,128.6z"/>
	<path id="XMLID_157_" class="st1" d="M450.1,127.7v6.6h-2.7v-11.6h2.1l5.4,6.8v-6.8h2.7v11.6h-2.2L450.1,127.7z"/>
	<path id="XMLID_155_" class="st1" d="M466.8,126.1c0,0-0.1-0.1-0.3-0.2c-0.2-0.1-0.4-0.2-0.7-0.4c-0.3-0.1-0.6-0.2-1-0.3
		c-0.3-0.1-0.7-0.1-1-0.1c-1,0-1.4,0.3-1.4,1c0,0.2,0.1,0.4,0.2,0.5s0.3,0.2,0.5,0.4c0.2,0.1,0.5,0.2,0.8,0.3
		c0.3,0.1,0.7,0.2,1.1,0.3c0.6,0.2,1.1,0.3,1.5,0.5c0.4,0.2,0.8,0.4,1.1,0.7c0.3,0.3,0.6,0.6,0.7,1c0.2,0.4,0.3,0.8,0.3,1.4
		c0,0.7-0.1,1.2-0.4,1.7c-0.2,0.5-0.6,0.8-1,1.1c-0.4,0.3-0.9,0.5-1.4,0.6s-1.1,0.2-1.6,0.2c-0.4,0-0.9,0-1.3-0.1s-0.9-0.2-1.3-0.3
		c-0.4-0.1-0.8-0.3-1.2-0.4c-0.4-0.2-0.8-0.4-1.1-0.6l1.2-2.3c0,0.1,0.2,0.2,0.4,0.3c0.2,0.2,0.5,0.3,0.9,0.5s0.7,0.3,1.2,0.4
		c0.4,0.1,0.9,0.2,1.3,0.2c0.9,0,1.4-0.3,1.4-0.9c0-0.2-0.1-0.4-0.2-0.5s-0.3-0.3-0.6-0.4c-0.3-0.1-0.5-0.2-0.9-0.3
		c-0.3-0.1-0.7-0.2-1.1-0.3c-0.5-0.2-1-0.3-1.4-0.5s-0.7-0.4-1-0.7c-0.3-0.2-0.4-0.5-0.6-0.9c-0.1-0.3-0.2-0.7-0.2-1.1
		c0-0.6,0.1-1.1,0.3-1.6c0.2-0.5,0.5-0.9,0.9-1.2c0.4-0.3,0.8-0.6,1.4-0.7c0.5-0.2,1.1-0.2,1.6-0.2c0.4,0,0.8,0,1.2,0.1
		c0.4,0.1,0.8,0.2,1.1,0.3c0.4,0.1,0.7,0.3,1,0.4c0.3,0.2,0.6,0.3,0.9,0.5L466.8,126.1z"/>
	<path id="XMLID_153_" class="st1" d="M469.9,134.4v-11.7h2.7v11.6h-2.7V134.4z"/>
	<path id="XMLID_151_" class="st1" d="M482.8,133.2c-0.9,0.8-1.9,1.2-3.1,1.2c-0.8,0-1.5-0.1-2.2-0.4s-1.3-0.7-1.8-1.2
		s-0.9-1.2-1.2-1.9c-0.3-0.7-0.4-1.5-0.4-2.4c0-0.8,0.1-1.5,0.4-2.3c0.3-0.7,0.7-1.3,1.2-1.8s1.1-0.9,1.8-1.2s1.5-0.5,2.3-0.5
		c1.1,0,2,0.2,2.8,0.7s1.4,1.1,1.8,1.9l-2,1.5c-0.3-0.5-0.6-0.9-1.1-1.2c-0.5-0.3-1-0.4-1.6-0.4c-0.4,0-0.9,0.1-1.2,0.3
		c-0.4,0.2-0.7,0.4-0.9,0.8c-0.3,0.3-0.5,0.7-0.6,1.1s-0.2,0.9-0.2,1.4s0.1,1,0.2,1.4c0.2,0.4,0.4,0.8,0.6,1.1s0.6,0.6,1,0.7
		c0.4,0.2,0.8,0.3,1.3,0.3c1,0,2-0.5,2.8-1.5v-0.4h-2.3v-1.9h4.5v6.1h-2.2L482.8,133.2L482.8,133.2z"/>
	<path id="XMLID_149_" class="st1" d="M491.8,132.1c0.5,0,0.8-0.1,1.2-0.3c0.3-0.2,0.6-0.4,0.8-0.8c0.2-0.3,0.3-0.7,0.4-1.1
		s0.1-0.8,0.1-1.3v-5.9h2.7v5.9c0,0.8-0.1,1.6-0.3,2.3c-0.2,0.7-0.5,1.3-0.9,1.8s-1,0.9-1.6,1.2c-0.6,0.3-1.4,0.4-2.3,0.4
		s-1.7-0.2-2.4-0.5c-0.7-0.3-1.2-0.7-1.6-1.3c-0.4-0.5-0.7-1.1-0.9-1.8c-0.2-0.7-0.3-1.4-0.3-2.2v-5.8h2.7v5.9c0,0.4,0,0.9,0.1,1.3
		s0.2,0.8,0.4,1.1c0.2,0.3,0.5,0.6,0.8,0.8C490.9,132,491.3,132.1,491.8,132.1z"/>
	<path id="XMLID_147_" class="st1" d="M507.1,132v2.4h-8.2v-11.7h8v2.4h-5.3v2.3h4.6v2.2h-4.6v2.5h5.5V132z"/>
	<path id="XMLID_145_" class="st1" d="M515.5,126.1c0,0-0.1-0.1-0.3-0.2c-0.2-0.1-0.4-0.2-0.7-0.4c-0.3-0.1-0.6-0.2-1-0.3
		c-0.3-0.1-0.7-0.1-1-0.1c-1,0-1.4,0.3-1.4,1c0,0.2,0.1,0.4,0.2,0.5s0.3,0.2,0.5,0.4c0.2,0.1,0.5,0.2,0.8,0.3
		c0.3,0.1,0.7,0.2,1.1,0.3c0.6,0.2,1.1,0.3,1.5,0.5c0.4,0.2,0.8,0.4,1.1,0.7c0.3,0.3,0.6,0.6,0.7,1c0.2,0.4,0.3,0.8,0.3,1.4
		c0,0.7-0.1,1.2-0.4,1.7c-0.2,0.5-0.6,0.8-1,1.1c-0.4,0.3-0.9,0.5-1.4,0.6s-1.1,0.2-1.6,0.2c-0.4,0-0.9,0-1.3-0.1s-0.9-0.2-1.3-0.3
		c-0.4-0.1-0.8-0.3-1.2-0.4c-0.4-0.2-0.8-0.4-1.1-0.6l1.2-2.3c0,0.1,0.2,0.2,0.4,0.3c0.2,0.2,0.5,0.3,0.9,0.5s0.7,0.3,1.2,0.4
		c0.4,0.1,0.9,0.2,1.3,0.2c0.9,0,1.4-0.3,1.4-0.9c0-0.2-0.1-0.4-0.2-0.5s-0.3-0.3-0.6-0.4c-0.3-0.1-0.5-0.2-0.9-0.3
		c-0.3-0.1-0.7-0.2-1.1-0.3c-0.5-0.2-1-0.3-1.4-0.5s-0.7-0.4-1-0.7c-0.3-0.2-0.4-0.5-0.6-0.9c-0.1-0.3-0.2-0.7-0.2-1.1
		c0-0.6,0.1-1.1,0.3-1.6c0.2-0.5,0.5-0.9,0.9-1.2c0.4-0.3,0.8-0.6,1.4-0.7c0.5-0.2,1.1-0.2,1.6-0.2c0.4,0,0.8,0,1.2,0.1
		c0.4,0.1,0.8,0.2,1.1,0.3c0.4,0.1,0.7,0.3,1,0.4c0.3,0.2,0.6,0.3,0.9,0.5L515.5,126.1z"/>
	<path id="XMLID_143_" class="st1" d="M522.4,128.5c0-0.7,0.1-1.4,0.4-2.1c0.2-0.7,0.6-1.3,1.1-1.9c0.5-0.5,1-1,1.7-1.3
		s1.5-0.5,2.3-0.5c1,0,1.9,0.2,2.7,0.7c0.7,0.5,1.3,1.1,1.6,1.8l-0.9,0.6c-0.2-0.4-0.4-0.7-0.7-1c-0.3-0.3-0.6-0.5-0.9-0.6
		c-0.3-0.2-0.6-0.3-0.9-0.4s-0.6-0.1-1-0.1c-0.7,0-1.3,0.1-1.8,0.4s-1,0.7-1.3,1.1c-0.4,0.5-0.6,1-0.8,1.5c-0.2,0.6-0.3,1.2-0.3,1.7
		c0,0.6,0.1,1.3,0.3,1.8c0.2,0.6,0.5,1.1,0.9,1.6s0.8,0.8,1.4,1.1c0.5,0.3,1.1,0.4,1.7,0.4c0.3,0,0.7,0,1-0.1s0.7-0.2,1-0.4
		c0.3-0.2,0.6-0.4,0.9-0.7c0.3-0.3,0.5-0.6,0.7-1l0.9,0.5c-0.2,0.4-0.4,0.8-0.8,1.2c-0.3,0.3-0.7,0.6-1.1,0.8
		c-0.4,0.2-0.9,0.4-1.3,0.5c-0.5,0.1-0.9,0.2-1.4,0.2c-0.8,0-1.5-0.2-2.2-0.5s-1.2-0.8-1.7-1.4s-0.9-1.2-1.1-1.9
		C522.5,129.9,522.4,129.2,522.4,128.5z"/>
	<path id="XMLID_140_" class="st1" d="M537.8,122.7h1l4.8,11.6h-1.2l-1.5-3.6h-5.2l-1.5,3.6H533L537.8,122.7z M540.6,129.8l-2.3-5.7
		l-2.4,5.7H540.6z"/>
	<path id="XMLID_137_" class="st1" d="M545.2,134.4v-11.7h4.9c0.5,0,1,0.1,1.4,0.3c0.4,0.2,0.8,0.5,1.1,0.8c0.3,0.3,0.5,0.7,0.7,1.2
		c0.2,0.4,0.3,0.9,0.3,1.3s-0.1,0.8-0.2,1.2c-0.1,0.4-0.3,0.7-0.5,1s-0.5,0.6-0.8,0.8c-0.3,0.2-0.7,0.4-1.1,0.4l2.8,4.5h-1.3
		l-2.7-4.3h-3.4v4.3h-1.2V134.4z M546.4,129.1h3.8c0.3,0,0.6-0.1,0.9-0.2s0.5-0.3,0.7-0.6c0.2-0.2,0.3-0.5,0.5-0.8
		c0.1-0.3,0.2-0.6,0.2-1s-0.1-0.7-0.2-1s-0.3-0.6-0.5-0.8s-0.5-0.4-0.8-0.6c-0.3-0.1-0.6-0.2-0.9-0.2h-3.7V129.1z"/>
	<path id="XMLID_135_" class="st1" d="M564.3,132.7c-1.1,1.2-2.3,1.8-3.7,1.8c-0.8,0-1.5-0.2-2.2-0.5s-1.2-0.8-1.7-1.3
		c-0.5-0.6-0.9-1.2-1.1-1.9c-0.3-0.7-0.4-1.4-0.4-2.2c0-0.8,0.1-1.5,0.4-2.2s0.6-1.3,1.1-1.9c0.5-0.5,1-1,1.7-1.3s1.4-0.5,2.1-0.5
		c0.6,0,1.1,0.1,1.6,0.2s0.9,0.3,1.3,0.5s0.7,0.5,0.9,0.8c0.3,0.3,0.5,0.7,0.7,1l-0.9,0.6c-0.4-0.7-0.9-1.2-1.5-1.6
		c-0.6-0.3-1.3-0.5-2.1-0.5c-0.6,0-1.2,0.1-1.7,0.4s-1,0.6-1.3,1.1c-0.4,0.5-0.6,1-0.8,1.6c-0.2,0.6-0.3,1.2-0.3,1.8
		c0,0.7,0.1,1.3,0.3,1.9s0.5,1.1,0.9,1.5s0.9,0.8,1.4,1.1c0.5,0.3,1.1,0.4,1.7,0.4c0.7,0,1.3-0.2,1.9-0.5s1.2-0.8,1.7-1.5v-1.9h-2.6
		v-0.9h3.5v5.7h-1L564.3,132.7L564.3,132.7z"/>
	<path id="XMLID_131_" class="st1" d="M571.2,122.7h1l4.8,11.6h-1.2l-1.5-3.6h-5.2l-1.5,3.6h-1.2L571.2,122.7z M574,129.8l-2.3-5.7
		l-2.4,5.7H574z"/>
	<path id="XMLID_129_" class="st1" d="M585.3,124.9c-0.3-0.4-0.8-0.7-1.3-0.9c-0.5-0.2-1.2-0.3-1.9-0.3c-1,0-1.8,0.2-2.2,0.6
		c-0.5,0.4-0.7,0.9-0.7,1.6c0,0.3,0.1,0.6,0.2,0.9c0.1,0.2,0.3,0.4,0.6,0.6c0.3,0.2,0.6,0.3,1,0.4s0.9,0.2,1.4,0.4
		c0.6,0.1,1.2,0.3,1.7,0.4c0.5,0.2,0.9,0.4,1.3,0.6c0.3,0.2,0.6,0.5,0.8,0.9c0.2,0.3,0.3,0.8,0.3,1.3s-0.1,1-0.3,1.4
		c-0.2,0.4-0.5,0.7-0.9,1s-0.8,0.5-1.3,0.6s-1.1,0.2-1.7,0.2c-1.8,0-3.4-0.6-4.7-1.7l0.6-0.9c0.2,0.2,0.5,0.4,0.7,0.6
		c0.3,0.2,0.6,0.4,1,0.5s0.7,0.3,1.1,0.3c0.4,0.1,0.8,0.1,1.3,0.1c0.9,0,1.6-0.2,2.2-0.5c0.5-0.3,0.8-0.8,0.8-1.5
		c0-0.4-0.1-0.7-0.2-0.9c-0.1-0.2-0.4-0.5-0.7-0.6c-0.3-0.2-0.7-0.3-1.1-0.5c-0.4-0.1-0.9-0.3-1.5-0.4s-1.1-0.3-1.6-0.4
		c-0.5-0.2-0.8-0.3-1.2-0.6c-0.3-0.2-0.6-0.5-0.7-0.8c-0.2-0.3-0.2-0.7-0.2-1.2s0.1-1,0.3-1.4c0.2-0.4,0.5-0.8,0.9-1
		c0.4-0.3,0.8-0.5,1.3-0.6s1.1-0.2,1.7-0.2c0.8,0,1.5,0.1,2.1,0.4s1.2,0.6,1.6,1L585.3,124.9z"/>
</g>
</svg>
