<?xml version="1.0" encoding="utf-8"?>
<!-- Generator: Adobe Illustrator 19.0.0, SVG Export Plug-In . SVG Version: 6.00 Build 0)  -->
<svg version="1.1" id="Capa_1" xmlns="http://www.w3.org/2000/svg" xmlns:xlink="http://www.w3.org/1999/xlink" x="0px" y="0px"
	 viewBox="-482 484.2 33.8 33.8" style="enable-background:new -482 484.2 33.8 33.8;" xml:space="preserve">
<style type="text/css">
	.st0{fill:#37AA30;}
</style>
<g>
	<path class="st0" d="M-449.7,513.5v4.5h-30.7v-4.5c0-2.1,1.8-4.7,4.1-5.8l5-2.4l3.5,7.2l1.8-4.8c0.3,0.1,0.7,0.2,1.1,0.2
		c0.4,0,0.7-0.1,1.1-0.2l1.7,4.6l3.4-7l5.1,2.4C-451.6,508.8-449.7,511.4-449.7,513.5z M-475.9,497.7v-3.2c0-0.6,0.3-1,0.7-1.3
		c0.6-5.1,4.9-9,10.1-9s9.5,3.9,10.1,9c0.4,0.3,0.7,0.8,0.7,1.3v3.2c0,0.9-0.7,1.6-1.6,1.6c-0.9,0-1.6-0.7-1.6-1.6V497
		c-0.8,4.3-4,8.2-7.7,8.2c-3.7,0-6.8-3.9-7.7-8.2v0.7c0,0.7-0.5,1.3-1.1,1.5c0.6,2.1,2,3.9,3.9,5.1c0.4-0.1,0.8-0.1,1.2,0.1
		c0.7,0.4,1,1.1,0.8,1.6c-0.3,0.5-1,0.6-1.7,0.3c-0.5-0.3-0.8-0.7-0.9-1.1c-2.2-1.4-3.7-3.5-4.4-6
		C-475.5,498.9-475.9,498.4-475.9,497.7z M-474.1,492.8c0,0,0.1,0,0.1,0c0.1,0,0.2,0.1,0.3,0.2c0.3,0.1,0.6,0.4,0.8,0.7
		c0.5-4.3,3.8-6.6,7.9-6.6c4.1,0,7.4,2.3,7.9,6.6c0.2-0.4,0.7-0.8,1.2-0.8c-0.7-4.4-4.5-7.8-9-7.8
		C-469.6,485.2-473.4,488.5-474.1,492.8z"/>
</g>
</svg>
