<?xml version="1.0" encoding="utf-8"?>
<!-- Generator: Adobe Illustrator 19.0.0, SVG Export Plug-In . SVG Version: 6.00 Build 0)  -->
<svg version="1.1" xmlns="http://www.w3.org/2000/svg" xmlns:xlink="http://www.w3.org/1999/xlink" x="0px" y="0px"
	 viewBox="0 0 282 80" style="enable-background:new 0 0 282 80;" xml:space="preserve">
<g id="Layer_2">
</g>
<g id="Layer_1">
	<g id="XMLID_56_">
		<path id="XMLID_57_" d="M55.8,64.5h190c3.5,0,7.3-3,8.2-6.5l8.4-31.8c0.4-1.6,0.2-3.1-0.6-4.2c-0.8-1-2.1-1.6-3.6-1.6H59.7
			c-3.5,0-7.3,3-8.2,6.5L46.9,44l-2.2-2.9l4-15c1.3-4.8,6.1-8.6,11-8.6h198.6c2.4,0,4.5,1,5.8,2.7c1.4,1.8,1.8,4.2,1.1,6.7
			l-8.4,31.8c-1.3,4.8-6.1,8.6-11,8.6H56.1L55.8,64.5z"/>
	</g>
	<g id="XMLID_43_">
		<path id="XMLID_48_" d="M109.2,39.7h-3.5v9.1H103v-9.1h-3.5v-2.3h9.6V39.7z"/>
		<path id="XMLID_50_" d="M111.3,48.9V37.4h2.7v11.5H111.3z"/>
		<path id="XMLID_52_" d="M116.9,48.9V37.4h4.9c0.5,0,1.1,0.1,1.5,0.3c0.5,0.2,0.9,0.5,1.2,0.9c0.3,0.4,0.6,0.8,0.8,1.2
			s0.3,0.9,0.3,1.4c0,0.5-0.1,1-0.3,1.5c-0.2,0.5-0.4,0.9-0.7,1.2c-0.3,0.4-0.7,0.7-1.2,0.9s-1,0.3-1.5,0.3h-2.3v3.7H116.9z
			 M119.6,42.9h2.2c0.3,0,0.6-0.1,0.8-0.4c0.2-0.3,0.3-0.7,0.3-1.2c0-0.3,0-0.5-0.1-0.7c-0.1-0.2-0.2-0.4-0.3-0.5
			c-0.1-0.1-0.3-0.2-0.4-0.3c-0.2-0.1-0.3-0.1-0.5-0.1h-2.1V42.9z"/>
		<path id="XMLID_55_" d="M132.8,49c-0.9,0-1.6-0.2-2.3-0.5c-0.7-0.3-1.3-0.8-1.8-1.3c-0.5-0.5-0.9-1.2-1.2-1.9
			c-0.3-0.7-0.4-1.4-0.4-2.2c0-0.8,0.1-1.5,0.4-2.2c0.3-0.7,0.7-1.3,1.2-1.9c0.5-0.5,1.1-1,1.8-1.3c0.7-0.3,1.5-0.5,2.3-0.5
			c0.9,0,1.6,0.2,2.3,0.5c0.7,0.3,1.3,0.8,1.8,1.3c0.5,0.5,0.9,1.2,1.1,1.9s0.4,1.4,0.4,2.1c0,0.8-0.1,1.5-0.4,2.2
			c-0.3,0.7-0.7,1.3-1.2,1.9s-1.1,1-1.8,1.3C134.4,48.8,133.7,49,132.8,49z M129.8,43.2c0,0.4,0.1,0.9,0.2,1.3s0.3,0.8,0.6,1.1
			c0.3,0.3,0.6,0.6,0.9,0.8c0.4,0.2,0.8,0.3,1.3,0.3c0.5,0,0.9-0.1,1.3-0.3c0.4-0.2,0.7-0.5,0.9-0.8c0.2-0.3,0.4-0.7,0.6-1.1
			c0.1-0.4,0.2-0.8,0.2-1.3c0-0.4-0.1-0.9-0.2-1.3c-0.1-0.4-0.3-0.8-0.6-1.1s-0.6-0.6-0.9-0.8c-0.4-0.2-0.8-0.3-1.3-0.3
			c-0.5,0-0.9,0.1-1.3,0.3c-0.4,0.2-0.7,0.5-0.9,0.8c-0.3,0.3-0.4,0.7-0.6,1.1S129.8,42.7,129.8,43.2z"/>
		<path id="XMLID_60_" d="M145.5,48.9V37.4h4.3c0.9,0,1.8,0.2,2.5,0.5c0.7,0.3,1.3,0.7,1.8,1.2c0.5,0.5,0.8,1.1,1.1,1.8
			c0.2,0.7,0.4,1.4,0.4,2.2c0,0.9-0.1,1.7-0.4,2.4c-0.3,0.7-0.7,1.3-1.2,1.8s-1.1,0.9-1.8,1.2s-1.5,0.4-2.4,0.4H145.5z M152.8,43.1
			c0-0.5-0.1-1-0.2-1.4s-0.3-0.8-0.6-1.1c-0.3-0.3-0.6-0.5-1-0.7c-0.4-0.2-0.8-0.2-1.3-0.2h-1.6v6.8h1.6c0.5,0,0.9-0.1,1.3-0.3
			c0.4-0.2,0.7-0.4,0.9-0.7c0.3-0.3,0.4-0.7,0.6-1.1C152.7,44.1,152.8,43.6,152.8,43.1z"/>
		<path id="XMLID_63_" d="M165.9,46.6v2.3h-8.1V37.4h7.9v2.3h-5.3V42h4.5v2.2h-4.5v2.4H165.9z"/>
		<path id="XMLID_65_" d="M172.3,43.1c0-0.7,0.1-1.4,0.4-2.1c0.3-0.7,0.6-1.3,1.1-1.8c0.5-0.5,1.1-1,1.8-1.3
			c0.7-0.3,1.5-0.5,2.4-0.5c1.1,0,2,0.2,2.8,0.7s1.4,1.1,1.8,1.8l-2,1.4c-0.1-0.3-0.3-0.6-0.5-0.8s-0.4-0.4-0.7-0.5
			c-0.2-0.1-0.5-0.2-0.7-0.3s-0.5-0.1-0.7-0.1c-0.5,0-0.9,0.1-1.3,0.3c-0.4,0.2-0.7,0.5-0.9,0.8c-0.2,0.3-0.4,0.7-0.5,1.1
			c-0.1,0.4-0.2,0.8-0.2,1.2c0,0.5,0.1,0.9,0.2,1.3c0.1,0.4,0.3,0.8,0.6,1.1c0.3,0.3,0.6,0.6,1,0.8c0.4,0.2,0.8,0.3,1.3,0.3
			c0.2,0,0.5,0,0.7-0.1c0.3-0.1,0.5-0.2,0.7-0.3c0.2-0.1,0.4-0.3,0.6-0.5c0.2-0.2,0.4-0.4,0.5-0.7l2.2,1.3c-0.2,0.4-0.4,0.8-0.8,1.1
			c-0.3,0.3-0.7,0.6-1.2,0.8c-0.4,0.2-0.9,0.4-1.4,0.5c-0.5,0.1-1,0.2-1.5,0.2c-0.8,0-1.6-0.2-2.3-0.5c-0.7-0.3-1.3-0.8-1.8-1.3
			c-0.5-0.6-0.9-1.2-1.2-1.9S172.3,43.8,172.3,43.1z"/>
		<path id="XMLID_67_" d="M187.8,37.4h2.4l4.2,11.5h-2.7l-0.9-2.6h-3.6l-0.9,2.6h-2.7L187.8,37.4z M190.3,44.5l-1.3-4.1l-1.4,4.1
			H190.3z"/>
		<path id="XMLID_70_" d="M196.3,48.9V37.4h5.2c0.5,0,1,0.1,1.5,0.3c0.5,0.2,0.9,0.5,1.2,0.9c0.3,0.4,0.6,0.8,0.8,1.2
			c0.2,0.5,0.3,0.9,0.3,1.4c0,0.4,0,0.7-0.1,1c-0.1,0.3-0.2,0.6-0.4,0.9c-0.2,0.3-0.4,0.6-0.6,0.8s-0.5,0.4-0.8,0.6l2.5,4.3h-3
			l-2.2-3.7H199v3.7H196.3z M199,42.9h2.4c0.3,0,0.6-0.1,0.8-0.4c0.2-0.3,0.3-0.7,0.3-1.1c0-0.5-0.1-0.9-0.4-1.1s-0.5-0.4-0.8-0.4
			H199V42.9z"/>
		<path id="XMLID_73_" d="M215.8,47.8c-0.9,0.8-1.9,1.2-3,1.2c-0.8,0-1.5-0.1-2.1-0.4c-0.7-0.3-1.3-0.7-1.8-1.2
			c-0.5-0.5-0.9-1.1-1.2-1.9c-0.3-0.7-0.4-1.5-0.4-2.4c0-0.8,0.1-1.5,0.4-2.2s0.7-1.3,1.2-1.8c0.5-0.5,1.1-0.9,1.8-1.2
			s1.5-0.5,2.3-0.5c1.1,0,2,0.2,2.8,0.7c0.8,0.4,1.4,1.1,1.8,1.8l-2,1.5c-0.3-0.5-0.6-0.9-1.1-1.2c-0.5-0.3-1-0.4-1.6-0.4
			c-0.4,0-0.8,0.1-1.2,0.3c-0.4,0.2-0.7,0.4-0.9,0.7c-0.3,0.3-0.5,0.7-0.6,1.1c-0.1,0.4-0.2,0.9-0.2,1.4c0,0.5,0.1,1,0.2,1.4
			c0.2,0.4,0.4,0.8,0.6,1.1c0.3,0.3,0.6,0.5,1,0.7c0.4,0.2,0.8,0.3,1.2,0.3c1,0,2-0.5,2.8-1.4v-0.4h-2.2v-1.9h4.4v6h-2.2V47.8z"/>
		<path id="XMLID_75_" d="M223.7,37.4h2.4l4.2,11.5h-2.7l-0.9-2.6h-3.6l-0.9,2.6h-2.7L223.7,37.4z M226.3,44.5l-1.3-4.1l-1.4,4.1
			H226.3z"/>
		<path id="XMLID_78_" d="M238.9,40.8c0,0-0.1-0.1-0.3-0.2c-0.2-0.1-0.4-0.2-0.7-0.4c-0.3-0.1-0.6-0.2-1-0.3c-0.3-0.1-0.7-0.1-1-0.1
			c-0.9,0-1.4,0.3-1.4,1c0,0.2,0.1,0.4,0.2,0.5c0.1,0.1,0.3,0.2,0.5,0.3s0.5,0.2,0.8,0.3c0.3,0.1,0.7,0.2,1,0.3
			c0.5,0.2,1,0.3,1.5,0.5c0.4,0.2,0.8,0.4,1.1,0.7c0.3,0.3,0.5,0.6,0.7,1s0.3,0.8,0.3,1.4c0,0.6-0.1,1.2-0.4,1.6
			c-0.2,0.4-0.6,0.8-1,1.1c-0.4,0.3-0.9,0.5-1.4,0.6c-0.5,0.1-1.1,0.2-1.6,0.2c-0.4,0-0.9,0-1.3-0.1c-0.4-0.1-0.9-0.2-1.3-0.3
			c-0.4-0.1-0.8-0.3-1.2-0.4c-0.4-0.2-0.8-0.4-1.1-0.6l1.2-2.3c0,0.1,0.2,0.2,0.4,0.3c0.2,0.2,0.5,0.3,0.9,0.5
			c0.3,0.2,0.7,0.3,1.2,0.4c0.4,0.1,0.9,0.2,1.3,0.2c0.9,0,1.4-0.3,1.4-0.9c0-0.2-0.1-0.4-0.2-0.5c-0.1-0.1-0.3-0.3-0.6-0.4
			s-0.5-0.2-0.9-0.3c-0.3-0.1-0.7-0.2-1.1-0.3c-0.5-0.2-1-0.3-1.4-0.5s-0.7-0.4-1-0.7s-0.4-0.5-0.6-0.9c-0.1-0.3-0.2-0.7-0.2-1.1
			c0-0.6,0.1-1.1,0.3-1.6c0.2-0.5,0.5-0.9,0.9-1.2c0.4-0.3,0.8-0.6,1.3-0.7s1.1-0.2,1.6-0.2c0.4,0,0.8,0,1.2,0.1s0.8,0.2,1.1,0.3
			c0.4,0.1,0.7,0.3,1,0.4c0.3,0.2,0.6,0.3,0.8,0.5L238.9,40.8z"/>
	</g>
	<g id="XMLID_45_">
		<path id="XMLID_46_" d="M18.1,58.8c-3.7,0-6.7,3-6.7,6.7c0,3.7,3,6.7,6.7,6.7s6.7-3,6.7-6.7C24.9,61.8,21.9,58.8,18.1,58.8z
			 M18.1,68.9c-1.9,0-3.4-1.5-3.4-3.4c0-1.9,1.5-3.4,3.4-3.4s3.4,1.5,3.4,3.4S20,68.9,18.1,68.9z M70,52.3l-9.2,5.7
			c-0.2-0.4-0.3-0.8-0.3-1.3v-8.9c0-0.4,0.1-0.8,0.2-1.2L70,52.3z M62,45.1c0.5-0.4,1.2-0.6,1.8-0.6h16.5c0.6,0,1.1,0.2,1.6,0.4
			l-10.1,6.2L62,45.1z M73.6,52.3l9.6-5.9c0.2,0.4,0.3,0.9,0.3,1.4v8.9c0,0.5-0.1,1-0.4,1.5L73.6,52.3z M58.9,61.5h17.2V65H59.7
			c-0.2-2.9-1.8-5.3-4.1-6.7v0c0,0,0,0,0,0l0-0.1V23.8h3.4L58.9,61.5L58.9,61.5z M81.8,59.5c-0.4,0.2-0.9,0.4-1.5,0.4H63.8
			c-0.6,0-1.2-0.2-1.7-0.5l9.7-6L81.8,59.5z M70,35l-9.2,5.7c-0.2-0.4-0.3-0.8-0.3-1.3v-8.9c0-0.4,0.1-0.8,0.2-1.2L70,35z M62,27.8
			c0.5-0.4,1.2-0.6,1.8-0.6h16.5c0.6,0,1.1,0.2,1.6,0.4l-10.1,6.2L62,27.8z M73.6,35l9.6-5.9c0.2,0.4,0.3,0.9,0.3,1.4v8.9
			c0,0.5-0.1,1-0.4,1.5L73.6,35z M81.8,42.3c-0.4,0.2-0.9,0.4-1.5,0.4H63.8c-0.6,0-1.2-0.2-1.7-0.5l9.7-6L81.8,42.3z M37.7,23.2
			c-0.9-1.7-2.7-2.8-4.6-2.8H22c-1.9,0-3.4,1.5-3.4,3.4v18h-3.4c-2.4,0-4.3,1.9-4.3,4.3v15.1c1.5-2.5,4.2-4.1,7.3-4.1
			c4.5,0,8.1,3.5,8.4,7.9h16.2c0.3-4.4,4-7.9,8.4-7.9c1.6,0,3,0.4,4.3,1.2v-0.1L37.7,23.2z M44.2,48.7H24.8c-0.5,0-0.9-0.4-0.9-0.9
			V26.5c0-0.5,0.4-0.9,0.9-0.9h8.5c0.3,0,0.6,0.2,0.8,0.5l11,21.3C45.3,48,44.9,48.7,44.2,48.7z M51.2,58.8c-3.7,0-6.7,3-6.7,6.7
			c0,3.7,3,6.7,6.7,6.7s6.7-3,6.7-6.7C58,61.8,54.9,58.8,51.2,58.8z M51.2,68.9c-1.9,0-3.4-1.5-3.4-3.4c0-1.9,1.5-3.4,3.4-3.4
			c1.9,0,3.4,1.5,3.4,3.4S53.1,68.9,51.2,68.9z"/>
	</g>
</g>
</svg>
