<?xml version="1.0" encoding="utf-8"?>
<!-- Generator: Adobe Illustrator 19.0.0, SVG Export Plug-In . SVG Version: 6.00 Build 0)  -->
<svg version="1.1" xmlns="http://www.w3.org/2000/svg" xmlns:xlink="http://www.w3.org/1999/xlink" x="0px" y="0px"
	 viewBox="0 0 282 80" style="enable-background:new 0 0 282 80;" xml:space="preserve">
<g id="Layer_2">
</g>
<g id="Layer_1">
	<g id="XMLID_16_">
		<path id="XMLID_61_" d="M264.1,20.2c-1.3-1.7-3.4-2.7-5.8-2.7H59.7c-2.6,0-5.2,1.1-7.3,2.9V12c0-0.3-0.2-0.6-0.4-0.8l-2.3-1.5
			c-0.6-0.4-1.4,0-1.4,0.8v11l-0.7-1.9c-0.9-2.5-3.3-4.2-6-4.2H25.6c-2.7,0-5.1,1.7-6,4.2L19,21.5v-11c0-0.7-0.8-1.2-1.4-0.8
			l-2.3,1.5c-0.3,0.2-0.4,0.5-0.4,0.8v34.2h-1c-2,0-3.6,1.6-3.6,3.6v9.4H8.7c-0.5,0-0.9,0.4-0.9,0.9v5c0,0.5,0.4,0.9,0.9,0.9h3.9
			v2.4c0,1,0.8,1.8,1.8,1.8h4.8c1,0,1.8-0.8,1.8-1.8v-2.4h25v2.4c0,1,0.8,1.8,1.8,1.8h4.8c1,0,1.8-0.8,1.8-1.8v-1.3h191.2
			c4.9,0,9.7-3.8,11-8.6l8.4-31.8C265.9,24.4,265.5,22,264.1,20.2z M20.2,26.6h26.9v9H20.2V26.6z M21.3,55c0,1-0.8,1.7-1.7,1.7h-3.1
			c-1,0-1.7-0.8-1.7-1.7v0c0-1,0.8-1.7,1.7-1.7h3.1C20.5,53.3,21.3,54,21.3,55L21.3,55z M41.7,55.4c0,1-0.8,1.8-1.8,1.8H27.4
			c-1,0-1.8-0.8-1.8-1.8V43.9c0-1,0.8-1.8,1.8-1.8h12.4c1,0,1.8,0.8,1.8,1.8V55.4z M46,55L46,55c0-1,0.8-1.8,1.7-1.8h3.1
			c1,0,1.7,0.8,1.7,1.7v0c0,1-0.8,1.7-1.7,1.7h-3.1C46.7,56.8,46,56,46,55z M262.5,26.1L254.1,58c-0.9,3.5-4.7,6.5-8.2,6.5H59.5
			v-4.3c0-0.5-0.4-0.9-0.9-0.9l-1.6,0v-9.4c0-2-1.6-3.6-3.6-3.6h-1V24.7c1.6-2.5,4.5-4.4,7.3-4.4h198.6c1.5,0,2.8,0.6,3.6,1.6
			C262.7,23,262.9,24.5,262.5,26.1z"/>
		<path id="XMLID_66_" d="M39.6,43.3H27.7c-0.5,0-0.9,0.4-0.9,0.9v0c0,0.5,0.4,0.9,0.9,0.9h11.9c0.5,0,0.9-0.4,0.9-0.9v0
			C40.5,43.7,40.1,43.3,39.6,43.3z"/>
		<path id="XMLID_67_" d="M39.6,46.9H27.7c-0.5,0-0.9,0.4-0.9,0.9v0c0,0.5,0.4,0.9,0.9,0.9h11.9c0.5,0,0.9-0.4,0.9-0.9v0
			C40.5,47.3,40.1,46.9,39.6,46.9z"/>
		<path id="XMLID_68_" d="M39.6,50.6H27.7c-0.5,0-0.9,0.4-0.9,0.9v0c0,0.5,0.4,0.9,0.9,0.9h11.9c0.5,0,0.9-0.4,0.9-0.9v0
			C40.5,51,40.1,50.6,39.6,50.6z"/>
		<path id="XMLID_69_" d="M39.6,54.2H27.7c-0.5,0-0.9,0.4-0.9,0.9v0c0,0.5,0.4,0.9,0.9,0.9h11.9c0.5,0,0.9-0.4,0.9-0.9v0
			C40.5,54.6,40.1,54.2,39.6,54.2z"/>
	</g>
	<g id="XMLID_1_">
		<path id="XMLID_2_" d="M79.2,39.7h-3.5v9.1H73v-9.1h-3.5v-2.3h9.6V39.7z"/>
		<path id="XMLID_4_" d="M81.3,48.9V37.4h2.7v11.5H81.3z"/>
		<path id="XMLID_6_" d="M86.9,48.9V37.4h4.9c0.5,0,1.1,0.1,1.5,0.3c0.5,0.2,0.9,0.5,1.2,0.9c0.3,0.4,0.6,0.8,0.8,1.2
			s0.3,0.9,0.3,1.4c0,0.5-0.1,1-0.3,1.5c-0.2,0.5-0.4,0.9-0.7,1.2c-0.3,0.4-0.7,0.7-1.2,0.9s-1,0.3-1.5,0.3h-2.3v3.7H86.9z
			 M89.6,42.9h2.2c0.3,0,0.6-0.1,0.8-0.4c0.2-0.3,0.3-0.7,0.3-1.2c0-0.3,0-0.5-0.1-0.7c-0.1-0.2-0.2-0.4-0.3-0.5
			c-0.1-0.1-0.3-0.2-0.4-0.3c-0.2-0.1-0.3-0.1-0.5-0.1h-2.1V42.9z"/>
		<path id="XMLID_9_" d="M102.8,49c-0.9,0-1.6-0.2-2.3-0.5c-0.7-0.3-1.3-0.8-1.8-1.3c-0.5-0.5-0.9-1.2-1.2-1.9
			c-0.3-0.7-0.4-1.4-0.4-2.2c0-0.8,0.1-1.5,0.4-2.2c0.3-0.7,0.7-1.3,1.2-1.9c0.5-0.5,1.1-1,1.8-1.3c0.7-0.3,1.5-0.5,2.3-0.5
			c0.9,0,1.6,0.2,2.3,0.5c0.7,0.3,1.3,0.8,1.8,1.3c0.5,0.5,0.9,1.2,1.1,1.9s0.4,1.4,0.4,2.1c0,0.8-0.1,1.5-0.4,2.2
			c-0.3,0.7-0.7,1.3-1.2,1.9c-0.5,0.5-1.1,1-1.8,1.3C104.4,48.8,103.7,49,102.8,49z M99.8,43.2c0,0.4,0.1,0.9,0.2,1.3
			s0.3,0.8,0.6,1.1c0.3,0.3,0.6,0.6,0.9,0.8c0.4,0.2,0.8,0.3,1.3,0.3c0.5,0,0.9-0.1,1.3-0.3c0.4-0.2,0.7-0.5,0.9-0.8
			c0.2-0.3,0.4-0.7,0.6-1.1c0.1-0.4,0.2-0.8,0.2-1.3c0-0.4-0.1-0.9-0.2-1.3c-0.1-0.4-0.3-0.8-0.6-1.1s-0.6-0.6-0.9-0.8
			c-0.4-0.2-0.8-0.3-1.3-0.3c-0.5,0-0.9,0.1-1.3,0.3c-0.4,0.2-0.7,0.5-0.9,0.8c-0.3,0.3-0.4,0.7-0.6,1.1S99.8,42.7,99.8,43.2z"/>
		<path id="XMLID_13_" d="M115.5,48.9V37.4h4.3c0.9,0,1.8,0.2,2.5,0.5c0.7,0.3,1.3,0.7,1.8,1.2c0.5,0.5,0.8,1.1,1.1,1.8
			c0.2,0.7,0.4,1.4,0.4,2.2c0,0.9-0.1,1.7-0.4,2.4c-0.3,0.7-0.7,1.3-1.2,1.8s-1.1,0.9-1.8,1.2c-0.7,0.3-1.5,0.4-2.4,0.4H115.5z
			 M122.8,43.1c0-0.5-0.1-1-0.2-1.4c-0.1-0.4-0.3-0.8-0.6-1.1c-0.3-0.3-0.6-0.5-1-0.7c-0.4-0.2-0.8-0.2-1.3-0.2h-1.6v6.8h1.6
			c0.5,0,0.9-0.1,1.3-0.3c0.4-0.2,0.7-0.4,0.9-0.7c0.3-0.3,0.4-0.7,0.6-1.1C122.7,44.1,122.8,43.6,122.8,43.1z"/>
		<path id="XMLID_70_" d="M135.9,46.6v2.3h-8.1V37.4h7.9v2.3h-5.3V42h4.5v2.2h-4.5v2.4H135.9z"/>
		<path id="XMLID_72_" d="M144,37.4l2.7,8.1l2.7-8.1h2.8l-4.3,11.5h-2.2l-4.4-11.5H144z"/>
		<path id="XMLID_74_" d="M162.1,46.6v2.3h-8.1V37.4h7.9v2.3h-5.3V42h4.5v2.2h-4.5v2.4H162.1z"/>
		<path id="XMLID_76_" d="M174.4,37.4v11.5h-2.7v-4.7h-4.6v4.7h-2.7V37.4h2.7v4.4h4.6v-4.4H174.4z"/>
		<path id="XMLID_78_" d="M177.4,48.9V37.4h2.7v11.5H177.4z M179.5,36.7l-1.6-0.5l0.8-2.1h2.3L179.5,36.7z"/>
		<path id="XMLID_81_" d="M182.4,43.1c0-0.7,0.1-1.4,0.4-2.1c0.3-0.7,0.6-1.3,1.1-1.8c0.5-0.5,1.1-1,1.8-1.3
			c0.7-0.3,1.5-0.5,2.4-0.5c1.1,0,2,0.2,2.8,0.7s1.4,1.1,1.8,1.8l-2,1.4c-0.1-0.3-0.3-0.6-0.5-0.8s-0.4-0.4-0.7-0.5
			c-0.2-0.1-0.5-0.2-0.7-0.3s-0.5-0.1-0.7-0.1c-0.5,0-0.9,0.1-1.3,0.3c-0.4,0.2-0.7,0.5-0.9,0.8c-0.2,0.3-0.4,0.7-0.5,1.1
			c-0.1,0.4-0.2,0.8-0.2,1.2c0,0.5,0.1,0.9,0.2,1.3c0.1,0.4,0.3,0.8,0.6,1.1c0.3,0.3,0.6,0.6,1,0.8c0.4,0.2,0.8,0.3,1.3,0.3
			c0.2,0,0.5,0,0.7-0.1c0.3-0.1,0.5-0.2,0.7-0.3c0.2-0.1,0.4-0.3,0.6-0.5c0.2-0.2,0.4-0.4,0.5-0.7l2.2,1.3c-0.2,0.4-0.4,0.8-0.8,1.1
			c-0.3,0.3-0.7,0.6-1.2,0.8c-0.4,0.2-0.9,0.4-1.4,0.5c-0.5,0.1-1,0.2-1.5,0.2c-0.8,0-1.6-0.2-2.3-0.5c-0.7-0.3-1.3-0.8-1.8-1.3
			c-0.5-0.6-0.9-1.2-1.2-1.9S182.4,43.8,182.4,43.1z"/>
		<path id="XMLID_83_" d="M200,46.6c0.5,0,0.8-0.1,1.1-0.3c0.3-0.2,0.6-0.4,0.8-0.8c0.2-0.3,0.3-0.7,0.4-1.1s0.1-0.8,0.1-1.2v-5.9
			h2.7v5.9c0,0.8-0.1,1.5-0.3,2.2s-0.5,1.3-0.9,1.8c-0.4,0.5-0.9,0.9-1.6,1.2c-0.6,0.3-1.4,0.4-2.3,0.4c-0.9,0-1.7-0.2-2.3-0.5
			s-1.2-0.7-1.6-1.3s-0.7-1.1-0.9-1.8c-0.2-0.7-0.3-1.4-0.3-2.2v-5.9h2.7v5.9c0,0.4,0,0.9,0.1,1.3c0.1,0.4,0.2,0.8,0.4,1.1
			c0.2,0.3,0.4,0.6,0.8,0.7C199.1,46.5,199.5,46.6,200,46.6z"/>
		<path id="XMLID_85_" d="M207.9,48.9V37.4h2.7v9.1h5.6v2.3H207.9z"/>
		<path id="XMLID_87_" d="M222.5,49c-0.9,0-1.6-0.2-2.3-0.5s-1.3-0.8-1.8-1.3c-0.5-0.5-0.9-1.2-1.2-1.9s-0.4-1.4-0.4-2.2
			c0-0.8,0.1-1.5,0.4-2.2c0.3-0.7,0.7-1.3,1.2-1.9c0.5-0.5,1.1-1,1.8-1.3s1.5-0.5,2.3-0.5c0.9,0,1.6,0.2,2.3,0.5
			c0.7,0.3,1.3,0.8,1.8,1.3c0.5,0.5,0.9,1.2,1.1,1.9c0.3,0.7,0.4,1.4,0.4,2.1c0,0.8-0.1,1.5-0.4,2.2c-0.3,0.7-0.7,1.3-1.2,1.9
			c-0.5,0.5-1.1,1-1.8,1.3C224.1,48.8,223.3,49,222.5,49z M219.5,43.2c0,0.4,0.1,0.9,0.2,1.3c0.1,0.4,0.3,0.8,0.6,1.1
			s0.6,0.6,0.9,0.8s0.8,0.3,1.3,0.3c0.5,0,0.9-0.1,1.3-0.3c0.4-0.2,0.7-0.5,0.9-0.8c0.2-0.3,0.4-0.7,0.6-1.1
			c0.1-0.4,0.2-0.8,0.2-1.3c0-0.4-0.1-0.9-0.2-1.3c-0.1-0.4-0.3-0.8-0.6-1.1s-0.6-0.6-0.9-0.8s-0.8-0.3-1.3-0.3
			c-0.5,0-0.9,0.1-1.3,0.3c-0.4,0.2-0.7,0.5-0.9,0.8c-0.3,0.3-0.4,0.7-0.6,1.1S219.5,42.7,219.5,43.2z"/>
		<path id="XMLID_90_" d="M237.4,40.8c0,0-0.1-0.1-0.3-0.2c-0.2-0.1-0.4-0.2-0.7-0.4c-0.3-0.1-0.6-0.2-1-0.3c-0.3-0.1-0.7-0.1-1-0.1
			c-0.9,0-1.4,0.3-1.4,1c0,0.2,0.1,0.4,0.2,0.5c0.1,0.1,0.3,0.2,0.5,0.3s0.5,0.2,0.8,0.3c0.3,0.1,0.7,0.2,1,0.3
			c0.5,0.2,1,0.3,1.5,0.5c0.4,0.2,0.8,0.4,1.1,0.7c0.3,0.3,0.5,0.6,0.7,1s0.3,0.8,0.3,1.4c0,0.6-0.1,1.2-0.4,1.6
			c-0.2,0.4-0.6,0.8-1,1.1c-0.4,0.3-0.9,0.5-1.4,0.6c-0.5,0.1-1.1,0.2-1.6,0.2c-0.4,0-0.9,0-1.3-0.1c-0.4-0.1-0.9-0.2-1.3-0.3
			c-0.4-0.1-0.8-0.3-1.2-0.4c-0.4-0.2-0.8-0.4-1.1-0.6l1.2-2.3c0,0.1,0.2,0.2,0.4,0.3c0.2,0.2,0.5,0.3,0.9,0.5
			c0.3,0.2,0.7,0.3,1.2,0.4c0.4,0.1,0.9,0.2,1.3,0.2c0.9,0,1.4-0.3,1.4-0.9c0-0.2-0.1-0.4-0.2-0.5c-0.1-0.1-0.3-0.3-0.6-0.4
			s-0.5-0.2-0.9-0.3c-0.3-0.1-0.7-0.2-1.1-0.3c-0.5-0.2-1-0.3-1.4-0.5s-0.7-0.4-1-0.7s-0.4-0.5-0.6-0.9c-0.1-0.3-0.2-0.7-0.2-1.1
			c0-0.6,0.1-1.1,0.3-1.6c0.2-0.5,0.5-0.9,0.9-1.2c0.4-0.3,0.8-0.6,1.3-0.7s1.1-0.2,1.6-0.2c0.4,0,0.8,0,1.2,0.1s0.8,0.2,1.1,0.3
			c0.4,0.1,0.7,0.3,1,0.4c0.3,0.2,0.6,0.3,0.8,0.5L237.4,40.8z"/>
	</g>
</g>
</svg>
